<svg width="20" height="20" viewBox="0 0 20 20" fill="none" xmlns="http://www.w3.org/2000/svg">
<g id="avalanche-avax-logo 1" clip-path="url(#clip0_10998_12785)">
<path id="Vector" fill-rule="evenodd" clip-rule="evenodd" d="M19.9853 9.99772C19.9853 15.5129 15.5115 19.9837 9.99264 19.9837C4.47386 19.9837 0 15.5129 0 9.99772C0 4.4826 4.47386 0.0117188 9.99264 0.0117188C15.5115 0.0117188 19.9853 4.4826 19.9853 9.99772ZM7.16101 13.9716H5.22172C4.81422 13.9716 4.61293 13.9716 4.4902 13.8932C4.35763 13.8073 4.27662 13.665 4.2668 13.508C4.25943 13.3633 4.36009 13.1866 4.56138 12.8334L6.95556 8.6161L9.34973 4.39884C9.55348 4.04068 9.65658 3.86159 9.78668 3.79536C9.9266 3.72422 10.0935 3.72422 10.2335 3.79536C10.3636 3.86159 10.4667 4.04068 10.6704 4.39884L11.6548 6.11606L11.6598 6.12482C11.8799 6.50907 11.9915 6.70392 12.0402 6.90843C12.0942 7.13167 12.0942 7.36717 12.0402 7.59041C11.9911 7.79648 11.8806 7.99274 11.6572 8.38279L9.14204 12.826L9.13554 12.8374C8.91402 13.2248 8.80176 13.4211 8.64618 13.5693C8.47679 13.7312 8.27304 13.8489 8.04965 13.9153C7.8459 13.9716 7.61761 13.9716 7.16101 13.9716ZM12.0584 13.9716H14.8371C15.2471 13.9716 15.4533 13.9716 15.5761 13.8908C15.7087 13.8049 15.7921 13.6601 15.7996 13.5032C15.8066 13.3632 15.7081 13.1934 15.5152 12.8606C15.5086 12.8493 15.5019 12.8378 15.4951 12.8261L14.1032 10.4465L14.0874 10.4197C13.8918 10.0892 13.793 9.92224 13.6662 9.85773C13.5264 9.78657 13.3618 9.78657 13.2219 9.85773C13.0943 9.92396 12.9912 10.0981 12.7874 10.4489L11.4005 12.8285L11.3957 12.8367C11.1927 13.1869 11.0912 13.362 11.0985 13.5056C11.1084 13.6626 11.1894 13.8073 11.3219 13.8932C11.4422 13.9716 11.6484 13.9716 12.0584 13.9716Z" fill="#8F8F8F"/>
</g>
<defs>
<clipPath id="clip0_10998_12785">
<rect width="19.9986" height="19.9986" fill="white" transform="translate(-0.00585938)"/>
</clipPath>
</defs>
</svg>
