<svg width="20" height="20" viewBox="0 0 20 20" fill="none" xmlns="http://www.w3.org/2000/svg">
<title>Binance Smart Chain</title>
<g id="Group">
<path id="Vector" d="M6.11587 8.40343L10.0001 4.52079L13.8859 8.40659L16.1447 6.14619L10.0001 0L3.85547 6.14461L6.11587 8.40343Z" fill="#8F8F8F"/>
<path id="Vector_2" d="M-0.00146484 9.99902L2.25811 7.73945L4.51768 9.99902L2.25811 12.2586L-0.00146484 9.99902Z" fill="#8F8F8F"/>
<path id="Vector_3" d="M6.11561 11.5963L9.99982 15.4805L13.8856 11.5947L16.146 13.852L16.1444 13.8535L9.99982 19.9997L3.85521 13.8567L3.85205 13.8535L6.11561 11.5963Z" fill="#8F8F8F"/>
<path id="Vector_4" d="M15.478 10.002L17.7376 7.74238L19.9972 10.002L17.7376 12.2615L15.478 10.002Z" fill="#8F8F8F"/>
<path id="Vector_5" d="M12.2922 10.0006L10.0002 7.70703L8.30532 9.40193L8.10945 9.59622L7.70824 9.99744L7.70508 10.0006L7.70824 10.0053L10.0002 12.2957L12.2922 10.0022L12.2938 10.0006H12.2922Z" fill="#8F8F8F"/>
</g>
</svg>
