<svg xmlns="http://www.w3.org/2000/svg" width="54" height="54" viewBox="0 0 54 54" fill="none">
  <g mask="url(#mask0_10998_12801)">
    <path d="M25.0557 30.8623H21.0557C19.6723 30.8623 18.4932 30.3748 17.5182 29.3998C16.5432 28.4248 16.0557 27.2456 16.0557 25.8623C16.0557 24.479 16.5432 23.2998 17.5182 22.3248C18.4932 21.3498 19.6723 20.8623 21.0557 20.8623H25.0557V22.8623H21.0557C20.2223 22.8623 19.514 23.154 18.9307 23.7373C18.3473 24.3206 18.0557 25.029 18.0557 25.8623C18.0557 26.6956 18.3473 27.404 18.9307 27.9873C19.514 28.5706 20.2223 28.8623 21.0557 28.8623H25.0557V30.8623ZM22.0557 26.8623V24.8623H30.0557V26.8623H22.0557ZM27.0557 30.8623V28.8623H31.0557C31.889 28.8623 32.5973 28.5706 33.1807 27.9873C33.764 27.404 34.0557 26.6956 34.0557 25.8623C34.0557 25.029 33.764 24.3206 33.1807 23.7373C32.5973 23.154 31.889 22.8623 31.0557 22.8623H27.0557V20.8623H31.0557C32.439 20.8623 33.6182 21.3498 34.5932 22.3248C35.5682 23.2998 36.0557 24.479 36.0557 25.8623C36.0557 27.2456 35.5682 28.4248 34.5932 29.3998C33.6182 30.3748 32.439 30.8623 31.0557 30.8623H27.0557Z" fill="white" fill-opacity="0.9"/>
  </g>
</svg>