<svg width="33" height="32" viewBox="0 0 33 32" fill="none" xmlns="http://www.w3.org/2000/svg">
<mask id="mask0_1217_17261" style="mask-type:alpha" maskUnits="userSpaceOnUse" x="0" y="0" width="33" height="32">
<rect x="0.5" width="32" height="32" fill="#D9D9D9"/>
</mask>
<g mask="url(#mask0_1217_17261)">
<path d="M3.16663 22.6665V3.99984C3.16663 3.62206 3.2944 3.30539 3.54996 3.04984C3.80551 2.79428 4.12218 2.6665 4.49996 2.6665H21.8333C22.2111 2.6665 22.5277 2.79428 22.7833 3.04984C23.0388 3.30539 23.1666 3.62206 23.1666 3.99984V15.9998C23.1666 16.3776 23.0388 16.6943 22.7833 16.9498C22.5277 17.2054 22.2111 17.3332 21.8333 17.3332H8.49996L3.16663 22.6665ZM9.83329 23.9998C9.45551 23.9998 9.13885 23.8721 8.88329 23.6165C8.62774 23.3609 8.49996 23.0443 8.49996 22.6665V19.9998H25.8333V7.99984H28.5C28.8777 7.99984 29.1944 8.12761 29.45 8.38317C29.7055 8.63873 29.8333 8.95539 29.8333 9.33317V29.3332L24.5 23.9998H9.83329ZM20.5 5.33317H5.83329V16.2332L7.39996 14.6665H20.5V5.33317Z" fill="white" fill-opacity="0.84"/>
</g>
</svg>
