<svg width="23" height="23" viewBox="0 0 23 23" fill="none" xmlns="http://www.w3.org/2000/svg">
<path d="M0.929443 16.6527V1.47487C0.929443 1.1677 1.03334 0.910225 1.24113 0.702434C1.44892 0.494643 1.7064 0.390747 2.01357 0.390747H16.1072C16.4144 0.390747 16.6719 0.494643 16.8797 0.702434C17.0875 0.910225 17.1913 1.1677 17.1913 1.47487V11.232C17.1913 11.5392 17.0875 11.7967 16.8797 12.0045C16.6719 12.2122 16.4144 12.3161 16.1072 12.3161H5.26595L0.929443 16.6527ZM6.35008 17.7368C6.04291 17.7368 5.78543 17.6329 5.57764 17.4251C5.36985 17.2173 5.26595 16.9598 5.26595 16.6527V14.4844H19.3596V4.72725H21.5279C21.835 4.72725 22.0925 4.83115 22.3003 5.03894C22.5081 5.24673 22.612 5.50421 22.612 5.81138V22.0733L18.2755 17.7368H6.35008ZM15.0231 2.559H3.0977V11.4217L4.37155 10.1479H15.0231V2.559Z" fill="white" fill-opacity="0.84"/>
</svg>
