<svg width="24" height="24" viewBox="0 0 24 24" fill="none" xmlns="http://www.w3.org/2000/svg">
<mask id="mask0_1217_6867" style="mask-type:alpha" maskUnits="userSpaceOnUse" x="0" y="0" width="24" height="24">
<rect width="24" height="24" fill="#D9D9D9"/>
</mask>
<g mask="url(#mask0_1217_6867)">
<path d="M12 20.5249C11.7833 20.5249 11.571 20.4876 11.363 20.4129C11.1543 20.3376 10.9583 20.2332 10.775 20.0999L4.025 14.8499C3.75833 14.6499 3.62933 14.3872 3.638 14.0619C3.646 13.7372 3.78333 13.4749 4.05 13.2749C4.23333 13.1416 4.43333 13.0749 4.65 13.0749C4.86667 13.0749 5.06667 13.1416 5.25 13.2749L12 18.4999L18.75 13.2749C18.9333 13.1416 19.1333 13.0749 19.35 13.0749C19.5667 13.0749 19.7667 13.1416 19.95 13.2749C20.2167 13.4749 20.3543 13.7372 20.363 14.0619C20.371 14.3872 20.2417 14.6499 19.975 14.8499L13.225 20.0999C13.0417 20.2332 12.846 20.3376 12.638 20.4129C12.4293 20.4876 12.2167 20.5249 12 20.5249ZM12 15.4749C11.7833 15.4749 11.571 15.4376 11.363 15.3629C11.1543 15.2876 10.9583 15.1832 10.775 15.0499L4.025 9.7999C3.89167 9.6999 3.79167 9.57924 3.725 9.4379C3.65833 9.2959 3.625 9.1499 3.625 8.9999C3.625 8.8499 3.65833 8.7039 3.725 8.5619C3.79167 8.42057 3.89167 8.2999 4.025 8.1999L10.775 2.9499C10.9583 2.81657 11.1543 2.71224 11.363 2.6369C11.571 2.56224 11.7833 2.5249 12 2.5249C12.2167 2.5249 12.4293 2.56224 12.638 2.6369C12.846 2.71224 13.0417 2.81657 13.225 2.9499L19.975 8.1999C20.1083 8.2999 20.2083 8.42057 20.275 8.5619C20.3417 8.7039 20.375 8.8499 20.375 8.9999C20.375 9.1499 20.3417 9.2959 20.275 9.4379C20.2083 9.57924 20.1083 9.6999 19.975 9.7999L13.225 15.0499C13.0417 15.1832 12.846 15.2876 12.638 15.3629C12.4293 15.4376 12.2167 15.4749 12 15.4749ZM12 13.4499L17.75 8.9999L12 4.5499L6.25 8.9999L12 13.4499Z" fill="white" fill-opacity="0.84"/>
</g>
</svg>
