<svg width="383" height="207" viewBox="0 0 383 207" fill="none" xmlns="http://www.w3.org/2000/svg">
<g clip-path="url(#clip0_334_19340)">
<rect x="1.5" y="1.5" width="150" height="156" fill="white" stroke="black" stroke-width="2"/>
<rect x="61.5" y="56.5" width="30" height="30" rx="15" fill="black" stroke="black" stroke-width="2"/>
<path d="M82.4661 69.736C82.7362 67.8447 81.3595 66.828 79.4771 66.1497L80.0878 63.5878L78.5965 63.1991L78.002 65.6936C77.6105 65.5914 77.2079 65.495 76.8079 65.3995L77.4066 62.8886L75.9166 62.5L75.3056 65.0611C74.9811 64.9838 74.6627 64.9074 74.3535 64.827L74.3552 64.819L72.2992 64.282L71.9026 65.9476C71.9026 65.9476 73.0087 66.2128 72.9854 66.2293C73.5892 66.3869 73.6988 66.8049 73.6801 67.1362L72.9845 70.0549C73.0261 70.066 73.0801 70.082 73.1395 70.1069L72.9824 70.066L72.007 74.1546C71.9331 74.3465 71.7459 74.6343 71.3238 74.525C71.3387 74.5477 70.2401 74.2421 70.2401 74.2421L69.5 76.0276L71.4406 76.5336C71.8015 76.6282 72.1552 76.7272 72.503 76.8205L71.886 79.4122L73.3752 79.8009L73.9867 77.2371C74.393 77.3526 74.7879 77.4592 75.1744 77.5596L74.5654 80.1114L76.0563 80.5L76.6733 77.9136C79.2156 78.4168 81.1277 78.2139 81.9315 75.8091C82.5799 73.8725 81.8997 72.7554 80.5621 72.0266C81.5362 71.7907 82.2699 71.1205 82.4657 69.736H82.4661ZM79.0593 74.7324C78.5982 76.669 75.4814 75.6226 74.4703 75.3596L75.289 71.9266C76.2996 72.1905 79.54 72.7128 79.0597 74.7324H79.0593ZM79.52 69.708C79.0996 71.4696 76.5051 70.5746 75.6631 70.3552L76.4054 67.2415C77.2474 67.4609 79.9583 67.8705 79.52 69.708V69.708Z" fill="white"/>
<rect x="17.5" y="107.5" width="111" height="14" fill="black"/>
<rect x="48.5" y="129.5" width="49" height="8" fill="#DCEDEC"/>
<path d="M21.144 34.5V32.876H22.432V26.324H21.144V24.7H26.184C26.7813 24.7 27.2993 24.8027 27.738 25.008C28.186 25.204 28.5313 25.4887 28.774 25.862C29.026 26.226 29.152 26.6647 29.152 27.178V27.318C29.152 27.766 29.068 28.1347 28.9 28.424C28.732 28.704 28.5313 28.9233 28.298 29.082C28.074 29.2313 27.8593 29.3387 27.654 29.404V29.656C27.8593 29.712 28.0833 29.8193 28.326 29.978C28.5687 30.1273 28.774 30.3467 28.942 30.636C29.1193 30.9253 29.208 31.3033 29.208 31.77V31.91C29.208 32.4513 29.082 32.918 28.83 33.31C28.578 33.6927 28.228 33.9867 27.78 34.192C27.3413 34.3973 26.828 34.5 26.24 34.5H21.144ZM24.28 32.82H26.016C26.4173 32.82 26.7393 32.722 26.982 32.526C27.234 32.33 27.36 32.05 27.36 31.686V31.546C27.36 31.182 27.2387 30.902 26.996 30.706C26.7533 30.51 26.4267 30.412 26.016 30.412H24.28V32.82ZM24.28 28.732H25.988C26.3707 28.732 26.6833 28.634 26.926 28.438C27.178 28.242 27.304 27.9713 27.304 27.626V27.486C27.304 27.1313 27.1827 26.8607 26.94 26.674C26.6973 26.478 26.38 26.38 25.988 26.38H24.28V28.732ZM34.0809 34.696C33.3902 34.696 32.7695 34.556 32.2189 34.276C31.6682 33.996 31.2342 33.59 30.9169 33.058C30.5995 32.526 30.4409 31.8867 30.4409 31.14V30.916C30.4409 30.1693 30.5995 29.53 30.9169 28.998C31.2342 28.466 31.6682 28.06 32.2189 27.78C32.7695 27.5 33.3902 27.36 34.0809 27.36C34.7715 27.36 35.3922 27.5 35.9429 27.78C36.4935 28.06 36.9275 28.466 37.2449 28.998C37.5622 29.53 37.7209 30.1693 37.7209 30.916V31.14C37.7209 31.8867 37.5622 32.526 37.2449 33.058C36.9275 33.59 36.4935 33.996 35.9429 34.276C35.3922 34.556 34.7715 34.696 34.0809 34.696ZM34.0809 33.128C34.6222 33.128 35.0702 32.9553 35.4249 32.61C35.7795 32.2553 35.9569 31.7513 35.9569 31.098V30.958C35.9569 30.3047 35.7795 29.8053 35.4249 29.46C35.0795 29.1053 34.6315 28.928 34.0809 28.928C33.5395 28.928 33.0915 29.1053 32.7369 29.46C32.3822 29.8053 32.2049 30.3047 32.2049 30.958V31.098C32.2049 31.7513 32.3822 32.2553 32.7369 32.61C33.0915 32.9553 33.5395 33.128 34.0809 33.128ZM39.3491 34.5V27.556H41.0851V28.34H41.3371C41.4398 28.06 41.6078 27.8547 41.8411 27.724C42.0838 27.5933 42.3638 27.528 42.6811 27.528H43.5211V29.096H42.6531C42.2051 29.096 41.8365 29.2173 41.5471 29.46C41.2578 29.6933 41.1131 30.0573 41.1131 30.552V34.5H39.3491ZM44.8999 34.5V27.556H46.6359V28.34H46.8879C46.9906 28.06 47.1586 27.8547 47.3919 27.724C47.6346 27.5933 47.9146 27.528 48.2319 27.528H49.0719V29.096H48.2039C47.7559 29.096 47.3873 29.2173 47.0979 29.46C46.8086 29.6933 46.6639 30.0573 46.6639 30.552V34.5H44.8999ZM53.5086 34.696C52.8179 34.696 52.1973 34.556 51.6466 34.276C51.0959 33.996 50.6619 33.59 50.3446 33.058C50.0273 32.526 49.8686 31.8867 49.8686 31.14V30.916C49.8686 30.1693 50.0273 29.53 50.3446 28.998C50.6619 28.466 51.0959 28.06 51.6466 27.78C52.1973 27.5 52.8179 27.36 53.5086 27.36C54.1993 27.36 54.8199 27.5 55.3706 27.78C55.9213 28.06 56.3553 28.466 56.6726 28.998C56.9899 29.53 57.1486 30.1693 57.1486 30.916V31.14C57.1486 31.8867 56.9899 32.526 56.6726 33.058C56.3553 33.59 55.9213 33.996 55.3706 34.276C54.8199 34.556 54.1993 34.696 53.5086 34.696ZM53.5086 33.128C54.0499 33.128 54.4979 32.9553 54.8526 32.61C55.2073 32.2553 55.3846 31.7513 55.3846 31.098V30.958C55.3846 30.3047 55.2073 29.8053 54.8526 29.46C54.5073 29.1053 54.0593 28.928 53.5086 28.928C52.9673 28.928 52.5193 29.1053 52.1646 29.46C51.8099 29.8053 51.6326 30.3047 51.6326 30.958V31.098C51.6326 31.7513 51.8099 32.2553 52.1646 32.61C52.5193 32.9553 52.9673 33.128 53.5086 33.128ZM59.3095 34.5L58.3295 27.556H60.0795L60.6955 33.31H60.9475L61.8435 27.556H64.6715L65.5675 33.31H65.8195L66.4355 27.556H68.1855L67.2055 34.5H64.2795L63.3835 28.746H63.1315L62.2355 34.5H59.3095ZM69.728 34.5V27.556H71.492V34.5H69.728ZM70.61 26.744C70.2927 26.744 70.022 26.6413 69.798 26.436C69.5834 26.2307 69.476 25.96 69.476 25.624C69.476 25.288 69.5834 25.0173 69.798 24.812C70.022 24.6067 70.2927 24.504 70.61 24.504C70.9367 24.504 71.2074 24.6067 71.422 24.812C71.6367 25.0173 71.744 25.288 71.744 25.624C71.744 25.96 71.6367 26.2307 71.422 26.436C71.2074 26.6413 70.9367 26.744 70.61 26.744ZM73.4468 34.5V27.556H75.1828V28.466H75.4348C75.5468 28.2233 75.7568 27.9947 76.0648 27.78C76.3728 27.556 76.8395 27.444 77.4648 27.444C78.0061 27.444 78.4775 27.57 78.8788 27.822C79.2895 28.0647 79.6068 28.4053 79.8308 28.844C80.0548 29.2733 80.1668 29.7773 80.1668 30.356V34.5H78.4028V30.496C78.4028 29.9733 78.2721 29.5813 78.0108 29.32C77.7588 29.0587 77.3948 28.928 76.9188 28.928C76.3775 28.928 75.9575 29.11 75.6588 29.474C75.3601 29.8287 75.2108 30.328 75.2108 30.972V34.5H73.4468ZM81.7378 31.056V30.832C81.7378 30.104 81.8824 29.4833 82.1718 28.97C82.4611 28.4473 82.8438 28.0507 83.3198 27.78C83.8051 27.5 84.3324 27.36 84.9018 27.36C85.5364 27.36 86.0171 27.472 86.3438 27.696C86.6704 27.92 86.9084 28.1533 87.0578 28.396H87.3098V27.556H89.0458V35.732C89.0458 36.208 88.9058 36.586 88.6258 36.866C88.3458 37.1553 87.9724 37.3 87.5058 37.3H82.8578V35.76H86.8898C87.1511 35.76 87.2818 35.62 87.2818 35.34V33.534H87.0298C86.9364 33.6833 86.8058 33.8373 86.6378 33.996C86.4698 34.1453 86.2458 34.2713 85.9658 34.374C85.6858 34.4767 85.3311 34.528 84.9018 34.528C84.3324 34.528 83.8051 34.3927 83.3198 34.122C82.8438 33.842 82.4611 33.4453 82.1718 32.932C81.8824 32.4093 81.7378 31.784 81.7378 31.056ZM85.4058 32.988C85.9471 32.988 86.3998 32.8153 86.7638 32.47C87.1278 32.1247 87.3098 31.6393 87.3098 31.014V30.874C87.3098 30.2393 87.1278 29.754 86.7638 29.418C86.4091 29.0727 85.9564 28.9 85.4058 28.9C84.8644 28.9 84.4118 29.0727 84.0478 29.418C83.6838 29.754 83.5018 30.2393 83.5018 30.874V31.014C83.5018 31.6393 83.6838 32.1247 84.0478 32.47C84.4118 32.8153 84.8644 32.988 85.4058 32.988Z" fill="black"/>
<rect x="7.5" y="6.5" width="3" height="3" fill="black"/>
<rect x="12.5" y="6.5" width="3" height="3" fill="black"/>
<rect x="17.5" y="6.5" width="3" height="3" fill="black"/>
</g>
<g clip-path="url(#clip1_334_19340)">
<rect x="125.5" y="33.5" width="150" height="156" fill="white" stroke="black" stroke-width="2"/>
<rect x="184.5" y="87.5" width="32" height="32" rx="16" fill="black"/>
<g clip-path="url(#clip2_334_19340)">
<path d="M195.775 106.659C195.859 106.567 195.975 106.513 196.099 106.513H207.272C207.476 106.513 207.578 106.782 207.434 106.94L205.227 109.354C205.142 109.446 205.026 109.5 204.903 109.5H193.73C193.525 109.5 193.423 109.231 193.568 109.073L195.775 106.659Z" fill="white"/>
<path d="M195.775 97.6463C195.863 97.5539 195.979 97.5 196.099 97.5H207.272C207.476 97.5 207.578 97.7695 207.434 97.9273L205.227 100.341C205.142 100.434 205.026 100.487 204.903 100.487H193.73C193.525 100.487 193.423 100.218 193.568 100.06L195.775 97.6463Z" fill="white"/>
<path d="M205.227 102.124C205.142 102.031 205.026 101.978 204.903 101.978H193.73C193.525 101.978 193.423 102.247 193.568 102.405L195.775 104.819C195.859 104.911 195.975 104.965 196.099 104.965H207.272C207.476 104.965 207.578 104.696 207.434 104.538L205.227 102.124Z" fill="white"/>
</g>
<rect x="161.5" y="139.5" width="78" height="14" fill="black"/>
<rect x="172.5" y="161.5" width="49" height="8" fill="#DCEDEC"/>
<path d="M145.424 66.5V56.7H147.272V64.82H151.752V66.5H145.424ZM156.232 66.696C155.541 66.696 154.93 66.5513 154.398 66.262C153.875 65.9633 153.465 65.548 153.166 65.016C152.877 64.4747 152.732 63.84 152.732 63.112V62.944C152.732 62.216 152.877 61.586 153.166 61.054C153.455 60.5127 153.861 60.0973 154.384 59.808C154.907 59.5093 155.513 59.36 156.204 59.36C156.885 59.36 157.478 59.514 157.982 59.822C158.486 60.1207 158.878 60.5407 159.158 61.082C159.438 61.614 159.578 62.2347 159.578 62.944V63.546H154.524C154.543 64.022 154.72 64.4093 155.056 64.708C155.392 65.0067 155.803 65.156 156.288 65.156C156.783 65.156 157.147 65.0487 157.38 64.834C157.613 64.6193 157.791 64.3813 157.912 64.12L159.354 64.876C159.223 65.1187 159.032 65.3847 158.78 65.674C158.537 65.954 158.211 66.1967 157.8 66.402C157.389 66.598 156.867 66.696 156.232 66.696ZM154.538 62.23H157.786C157.749 61.8287 157.585 61.5067 157.296 61.264C157.016 61.0213 156.647 60.9 156.19 60.9C155.714 60.9 155.336 61.0213 155.056 61.264C154.776 61.5067 154.603 61.8287 154.538 62.23ZM161.148 66.5V59.556H162.884V60.466H163.136C163.248 60.2233 163.458 59.9947 163.766 59.78C164.074 59.556 164.541 59.444 165.166 59.444C165.707 59.444 166.179 59.57 166.58 59.822C166.991 60.0647 167.308 60.4053 167.532 60.844C167.756 61.2733 167.868 61.7773 167.868 62.356V66.5H166.104V62.496C166.104 61.9733 165.973 61.5813 165.712 61.32C165.46 61.0587 165.096 60.928 164.62 60.928C164.079 60.928 163.659 61.11 163.36 61.474C163.061 61.8287 162.912 62.328 162.912 62.972V66.5H161.148ZM172.575 66.696C172.024 66.696 171.506 66.5607 171.021 66.29C170.545 66.01 170.162 65.604 169.873 65.072C169.584 64.54 169.439 63.896 169.439 63.14V62.916C169.439 62.16 169.584 61.516 169.873 60.984C170.162 60.452 170.545 60.0507 171.021 59.78C171.497 59.5 172.015 59.36 172.575 59.36C172.995 59.36 173.345 59.4113 173.625 59.514C173.914 59.6073 174.148 59.7287 174.325 59.878C174.502 60.0273 174.638 60.186 174.731 60.354H174.983V56.7H176.747V66.5H175.011V65.66H174.759C174.6 65.9213 174.353 66.1593 174.017 66.374C173.69 66.5887 173.21 66.696 172.575 66.696ZM173.107 65.156C173.648 65.156 174.101 64.9833 174.465 64.638C174.829 64.2833 175.011 63.77 175.011 63.098V62.958C175.011 62.286 174.829 61.7773 174.465 61.432C174.11 61.0773 173.658 60.9 173.107 60.9C172.566 60.9 172.113 61.0773 171.749 61.432C171.385 61.7773 171.203 62.286 171.203 62.958V63.098C171.203 63.77 171.385 64.2833 171.749 64.638C172.113 64.9833 172.566 65.156 173.107 65.156ZM178.703 66.5V59.556H180.467V66.5H178.703ZM179.585 58.744C179.267 58.744 178.997 58.6413 178.773 58.436C178.558 58.2307 178.451 57.96 178.451 57.624C178.451 57.288 178.558 57.0173 178.773 56.812C178.997 56.6067 179.267 56.504 179.585 56.504C179.911 56.504 180.182 56.6067 180.397 56.812C180.611 57.0173 180.719 57.288 180.719 57.624C180.719 57.96 180.611 58.2307 180.397 58.436C180.182 58.6413 179.911 58.744 179.585 58.744ZM182.421 66.5V59.556H184.157V60.466H184.409C184.521 60.2233 184.731 59.9947 185.039 59.78C185.347 59.556 185.814 59.444 186.439 59.444C186.981 59.444 187.452 59.57 187.853 59.822C188.264 60.0647 188.581 60.4053 188.805 60.844C189.029 61.2733 189.141 61.7773 189.141 62.356V66.5H187.377V62.496C187.377 61.9733 187.247 61.5813 186.985 61.32C186.733 61.0587 186.369 60.928 185.893 60.928C185.352 60.928 184.932 61.11 184.633 61.474C184.335 61.8287 184.185 62.328 184.185 62.972V66.5H182.421ZM190.712 63.056V62.832C190.712 62.104 190.857 61.4833 191.146 60.97C191.436 60.4473 191.818 60.0507 192.294 59.78C192.78 59.5 193.307 59.36 193.876 59.36C194.511 59.36 194.992 59.472 195.318 59.696C195.645 59.92 195.883 60.1533 196.032 60.396H196.284V59.556H198.02V67.732C198.02 68.208 197.88 68.586 197.6 68.866C197.32 69.1553 196.947 69.3 196.48 69.3H191.832V67.76H195.864C196.126 67.76 196.256 67.62 196.256 67.34V65.534H196.004C195.911 65.6833 195.78 65.8373 195.612 65.996C195.444 66.1453 195.22 66.2713 194.94 66.374C194.66 66.4767 194.306 66.528 193.876 66.528C193.307 66.528 192.78 66.3927 192.294 66.122C191.818 65.842 191.436 65.4453 191.146 64.932C190.857 64.4093 190.712 63.784 190.712 63.056ZM194.38 64.988C194.922 64.988 195.374 64.8153 195.738 64.47C196.102 64.1247 196.284 63.6393 196.284 63.014V62.874C196.284 62.2393 196.102 61.754 195.738 61.418C195.384 61.0727 194.931 60.9 194.38 60.9C193.839 60.9 193.386 61.0727 193.022 61.418C192.658 61.754 192.476 62.2393 192.476 62.874V63.014C192.476 63.6393 192.658 64.1247 193.022 64.47C193.386 64.8153 193.839 64.988 194.38 64.988Z" fill="black"/>
<rect x="131.5" y="38.5" width="3" height="3" fill="black"/>
<rect x="136.5" y="38.5" width="3" height="3" fill="black"/>
<rect x="141.5" y="38.5" width="3" height="3" fill="black"/>
</g>
<circle cx="125.5" cy="158.5" r="12" fill="black" stroke="black" stroke-width="2"/>
<mask id="mask0_334_19340" style="mask-type:alpha" maskUnits="userSpaceOnUse" x="115" y="148" width="21" height="21">
<rect x="115.5" y="148.5" width="20" height="20" fill="#D9D9D9"/>
</mask>
<g mask="url(#mask0_334_19340)">
<path d="M119.5 157.167V155.5H131.167V157.167H119.5Z" fill="white"/>
<path d="M119.5 162.167V160.5H131.167V162.167H119.5Z" fill="white"/>
</g>
<defs>
<clipPath id="clip0_334_19340">
<rect width="262" height="174" fill="white" transform="translate(0.5 0.5)"/>
</clipPath>
<clipPath id="clip1_334_19340">
<rect width="262" height="174" fill="white" transform="translate(124.5 32.5)"/>
</clipPath>
<clipPath id="clip2_334_19340">
<rect width="14" height="12" fill="white" transform="translate(193.5 97.5)"/>
</clipPath>
</defs>
</svg>
