<svg width="77" height="20" viewBox="0 0 77 20" fill="none" xmlns="http://www.w3.org/2000/svg">
<path fill-rule="evenodd" clip-rule="evenodd" d="M0 19.9182V10.6344C0 8.66507 0.459695 7.23487 1.37898 6.34399C2.29827 5.4531 3.69459 5.00771 5.56785 5.00771H9.36868V7.53971H6.34839C5.15158 7.53971 4.30161 7.85843 3.7986 8.49612C3.2956 9.1338 3.04414 10.1372 3.04414 11.5063V19.9182H0ZM11.2055 19.9182C8.91591 19.9182 7.77106 18.3709 7.77106 15.2763C7.77106 13.8321 8.05722 12.6974 8.6296 11.8721C9.20199 11.0469 10.0607 10.6344 11.2055 10.6344H17.4495V9.67776C17.4495 8.25235 16.8078 7.53971 15.5243 7.53971H11.501V5.00771H16.6171C17.8833 5.00771 18.8459 5.41102 19.505 6.21751C20.1641 7.024 20.4937 8.08354 20.4937 9.39643V17.3862C20.4937 19.0742 19.7131 19.9182 18.1521 19.9182H11.2055ZM22.6011 19.9182V10.6344C22.6011 8.66507 23.0607 7.23487 23.98 6.34399C24.8993 5.4531 26.2954 5.00771 28.1687 5.00771H30.6122V7.53971H28.9492C27.7524 7.53971 26.9027 7.85843 26.3997 8.49612C25.8966 9.1338 25.645 10.1372 25.645 11.5063V19.9182H22.6011ZM32.7786 19.9182V5.00771H35.8227V19.9182H32.7786ZM12.3761 17.3862H16.669C17.1894 17.3862 17.4495 17.1049 17.4495 16.5422V13.1662H12.3761C11.4047 13.1662 10.9191 13.8696 10.9191 15.2763C10.9191 16.683 11.4047 17.3862 12.3761 17.3862ZM32.7786 3.03837V0H35.8227V3.03837H32.7786Z" fill="white" fill-opacity="0.84"/>
<path fill-rule="evenodd" clip-rule="evenodd" d="M63.1351 6.81365C64.3513 5.73996 66.3025 5.20312 68.9889 5.20312C71.6753 5.20312 73.6265 5.73996 74.8426 6.81365C76.0588 7.88733 76.6668 9.8072 76.6668 12.5733C76.6668 15.3758 76.0633 17.3139 74.8562 18.3876C73.6492 19.4612 71.6934 19.9981 68.9889 19.9981C66.2843 19.9981 64.3286 19.4612 63.1215 18.3876C61.9145 17.3139 61.3109 15.3758 61.3109 12.5733C61.3109 9.8072 61.919 7.88733 63.1351 6.81365ZM64.6054 12.5733C64.6054 14.3749 64.9321 15.6533 65.5855 16.4085C66.239 17.1637 67.3734 17.5414 68.9889 17.5414C70.6043 17.5414 71.7388 17.1637 72.3922 16.4085C73.0457 15.6533 73.3724 14.3749 73.3724 12.5733C73.3724 10.7899 73.0457 9.52515 72.3922 8.77903C71.7388 8.03291 70.6043 7.65985 68.9889 7.65985C67.3734 7.65985 66.239 8.03291 65.5855 8.77903C64.9321 9.52515 64.6054 10.7899 64.6054 12.5733ZM38.6855 19.8343V7.82364C38.6855 6.18581 39.5023 5.36691 41.1359 5.36691H53.633C55.4118 5.36691 56.7913 5.73996 57.7715 6.48608C58.7516 7.2322 59.2417 8.50605 59.2417 10.3077V19.8343H56.0562V11.1539C56.0562 10.0256 55.8202 9.18848 55.3483 8.64254C54.8764 8.0966 54.1049 7.82364 53.034 7.82364H50.5564V19.8343H47.3709V7.82364H42.6879C42.1433 7.82364 41.8711 8.0966 41.8711 8.64254V19.8343H38.6855Z" fill="white" fill-opacity="0.84"/>
</svg>
