<svg width="28" height="28" viewBox="0 0 28 28" fill="none" xmlns="http://www.w3.org/2000/svg">
<path d="M12.7337 23.3337H15.2004V21.7004C16.2893 21.5004 17.2395 21.0671 18.0511 20.4004C18.8617 19.7337 19.2671 18.7337 19.2671 17.4004C19.2671 16.4448 18.9951 15.5724 18.4511 14.7831C17.9062 13.9946 16.8337 13.3115 15.2337 12.7337C13.9004 12.2893 12.9839 11.9004 12.4844 11.5671C11.9839 11.2337 11.7337 10.7893 11.7337 10.2337C11.7337 9.67817 11.9337 9.24483 12.3337 8.93372C12.7337 8.62261 13.3004 8.46706 14.0337 8.46706C14.7226 8.46706 15.2728 8.63906 15.6844 8.98306C16.0951 9.32795 16.3893 9.76706 16.5671 10.3004L18.8004 9.36706C18.5559 8.54483 18.1062 7.84483 17.4511 7.26706C16.7951 6.68928 16.0671 6.36706 15.2671 6.30039V4.66706H12.8004V6.30039C11.6671 6.54484 10.7951 7.03906 10.1844 7.78306C9.57283 8.52795 9.26706 9.35595 9.26706 10.2671C9.26706 11.3337 9.58395 12.1946 10.2177 12.8497C10.8506 13.5057 11.8559 14.0782 13.2337 14.5671C14.5671 15.0559 15.4951 15.4946 16.0177 15.8831C16.5395 16.2724 16.8004 16.7782 16.8004 17.4004C16.8004 18.1115 16.5506 18.6337 16.0511 18.9671C15.5506 19.3004 14.9337 19.4671 14.2004 19.4671C13.4671 19.4671 12.8226 19.2395 12.2671 18.7844C11.7115 18.3284 11.3004 17.6337 11.0337 16.7004L8.73372 17.6337C9.02261 18.7226 9.50572 19.6057 10.1831 20.2831C10.8613 20.9613 11.7115 21.4115 12.7337 21.6337V23.3337ZM14.0004 27.6004C12.1115 27.6004 10.3391 27.2448 8.68306 26.5337C7.02795 25.8226 5.58928 24.8559 4.36706 23.6337C3.14484 22.4115 2.17817 20.9728 1.46706 19.3177C0.755946 17.6617 0.400391 15.8893 0.400391 14.0004C0.400391 12.1115 0.755946 10.3391 1.46706 8.68306C2.17817 7.02795 3.14484 5.58928 4.36706 4.36706C5.58928 3.14484 7.02795 2.17817 8.68306 1.46706C10.3391 0.755946 12.1115 0.400391 14.0004 0.400391C15.8893 0.400391 17.6617 0.755946 19.3177 1.46706C20.9728 2.17817 22.4115 3.14484 23.6337 4.36706C24.8559 5.58928 25.8226 7.02795 26.5337 8.68306C27.2448 10.3391 27.6004 12.1115 27.6004 14.0004C27.6004 15.8893 27.2448 17.6617 26.5337 19.3177C25.8226 20.9728 24.8559 22.4115 23.6337 23.6337C22.4115 24.8559 20.9728 25.8226 19.3177 26.5337C17.6617 27.2448 15.8893 27.6004 14.0004 27.6004ZM14.0004 24.5671C16.9559 24.5671 19.4559 23.5448 21.5004 21.5004C23.5448 19.4559 24.5671 16.9559 24.5671 14.0004C24.5671 11.0448 23.5448 8.54484 21.5004 6.50039C19.4559 4.45595 16.9559 3.43372 14.0004 3.43372C11.0448 3.43372 8.54484 4.45595 6.50039 6.50039C4.45595 8.54484 3.43372 11.0448 3.43372 14.0004C3.43372 16.9559 4.45595 19.4559 6.50039 21.5004C8.54484 23.5448 11.0448 24.5671 14.0004 24.5671Z" fill="white" fill-opacity="0.84"/>
</svg>
