<svg width="20" height="20" viewBox="0 0 20 20" fill="none" xmlns="http://www.w3.org/2000/svg">
<g id="near-protocol-near-logo 1">
<path id="Vector" d="M15.2713 2.14438L11.6201 7.569C11.3676 7.93842 11.8532 8.38561 12.2027 8.07452L15.7957 4.94418C15.8928 4.86641 16.0288 4.92474 16.0288 5.06084V14.8407C16.0288 14.9768 15.854 15.0351 15.7763 14.9379L4.90026 1.91106C4.55068 1.48332 4.04572 1.25 3.4825 1.25H3.09407C2.08415 1.25 1.24902 2.08605 1.24902 3.11653V16.8822C1.24902 17.9127 2.08415 18.7488 3.11349 18.7488C3.7544 18.7488 4.35646 18.4182 4.70605 17.8544L8.35729 12.4298C8.60977 12.0603 8.12423 11.6132 7.77464 11.9242L4.18167 15.0351C4.08456 15.1129 3.94861 15.0546 3.94861 14.9185V5.15806C3.94861 5.02196 4.1234 4.96363 4.20109 5.06084L15.0771 18.0877C15.4267 18.5154 15.9511 18.7488 16.4949 18.7488H16.8833C17.9127 18.7488 18.7478 17.9127 18.7478 16.8822V3.11653C18.7478 2.08605 17.9127 1.25 16.8833 1.25C16.223 1.25 15.6209 1.58053 15.2713 2.14438Z" fill="#8F8F8F"/>
</g>
</svg>
