<svg width="52" height="52" viewBox="0 0 52 52" fill="none" xmlns="http://www.w3.org/2000/svg">
<g clip-path="url(#clip0_11005_12945)">
<path d="M32.4298 30.7278L38.6124 27.1664C38.9402 26.9772 39.1427 26.6264 39.1427 26.2498V19.127C39.1427 18.7504 38.9402 18.3996 38.6124 18.2104L32.4298 14.649C32.1021 14.4598 31.6951 14.4617 31.3692 14.649L25.1866 18.2104C24.8588 18.3996 24.6563 18.7504 24.6563 19.127V31.8555L20.3203 34.3516L15.9844 31.8555V26.8615L20.3203 24.3653L23.1797 26.0129V22.6627L20.8506 21.32C20.6904 21.2282 20.5063 21.1786 20.3203 21.1786C20.1344 21.1786 19.9503 21.2282 19.7901 21.32L13.6074 24.8815C13.2797 25.0707 13.0771 25.4215 13.0771 25.798V32.9209C13.0771 33.2973 13.2797 33.6482 13.6074 33.8373L19.7901 37.3988C20.1178 37.5861 20.5229 37.5861 20.8506 37.3988L27.0333 33.8373C27.361 33.6482 27.5635 33.2973 27.5635 32.9209V20.1923L27.6408 20.1482L31.8977 17.6961L36.2337 20.1923V25.1864L31.8977 27.6825L29.042 26.0386V29.3888L31.3674 30.7278C31.6951 30.9152 32.1021 30.9152 32.428 30.7278H32.4298Z" fill="white"/>
</g>
<defs>
<clipPath id="clip0_11005_12945">
<rect width="26.5714" height="24" fill="white" transform="translate(13 14)"/>
</clipPath>
</defs>
</svg>
