<svg width="20" height="20" viewBox="0 0 20 20" fill="none" xmlns="http://www.w3.org/2000/svg">
<g id="polygon-matic-logo 1" clip-path="url(#clip0_10998_12789)">
<g id="Group">
<path id="Vector" d="M15.0958 6.60737C14.7312 6.39905 14.2625 6.39905 13.8459 6.60737L10.9294 8.326L8.95038 9.41967L6.08599 11.1383C5.72144 11.3466 5.25272 11.3466 4.83608 11.1383L2.59666 9.78423C2.2321 9.57591 1.9717 9.15927 1.9717 8.69056V6.08657C1.9717 5.66994 2.18002 5.2533 2.59666 4.9929L4.83608 3.69091C5.20064 3.48259 5.66936 3.48259 6.08599 3.69091L8.32542 5.04498C8.68998 5.2533 8.95038 5.66994 8.95038 6.13865V7.85728L10.9294 6.71153V4.94082C10.9294 4.52418 10.7211 4.10755 10.3044 3.84715L6.13807 1.3994C5.77352 1.19108 5.3048 1.19108 4.88816 1.3994L0.617632 3.89923C0.200994 4.10755 -0.00732422 4.52418 -0.00732422 4.94082V9.83631C-0.00732422 10.2529 0.200994 10.6696 0.617632 10.93L4.83608 13.3777C5.20064 13.586 5.66936 13.586 6.08599 13.3777L8.95038 11.7112L10.9294 10.5654L13.7938 8.89887C14.1583 8.69056 14.6271 8.69056 15.0437 8.89887L17.2831 10.2009C17.6477 10.4092 17.9081 10.8258 17.9081 11.2945V13.8985C17.9081 14.3152 17.6998 14.7318 17.2831 14.9922L15.0958 16.2942C14.7312 16.5025 14.2625 16.5025 13.8459 16.2942L11.6064 14.9922C11.2419 14.7839 10.9815 14.3672 10.9815 13.8985V12.232L9.00245 13.3777V15.0964C9.00245 15.513 9.21077 15.9296 9.62741 16.19L13.8459 18.6378C14.2104 18.8461 14.6791 18.8461 15.0958 18.6378L19.3142 16.19C19.6788 15.9817 19.9392 15.5651 19.9392 15.0964V10.1488C19.9392 9.73215 19.7309 9.31551 19.3142 9.05511L15.0958 6.60737Z" fill="#8F8F8F"/>
</g>
</g>
<defs>
<clipPath id="clip0_10998_12789">
<rect width="19.9986" height="19.9986" fill="white" transform="translate(-0.00732422)"/>
</clipPath>
</defs>
</svg>
