<svg width="24" height="24" viewBox="0 0 24 24" fill="none" xmlns="http://www.w3.org/2000/svg">
<mask id="mask0_1217_6887" style="mask-type:alpha" maskUnits="userSpaceOnUse" x="0" y="0" width="24" height="24">
<rect width="24" height="24" fill="#D9D9D9"/>
</mask>
<g mask="url(#mask0_1217_6887)">
<path d="M10.6 16C10.6 14.65 10.721 13.679 10.963 13.087C11.2043 12.4957 11.7167 11.85 12.5 11.15C13.1833 10.55 13.704 10.029 14.062 9.587C14.4207 9.14567 14.6 8.64167 14.6 8.075C14.6 7.39167 14.371 6.825 13.913 6.375C13.4543 5.925 12.8167 5.7 12 5.7C11.15 5.7 10.504 5.95833 10.062 6.475C9.62065 6.99167 9.30832 7.51667 9.12499 8.05L6.54999 6.95C6.89999 5.88333 7.54165 4.95833 8.47499 4.175C9.40832 3.39167 10.5833 3 12 3C13.75 3 15.096 3.48767 16.038 4.463C16.9793 5.43767 17.45 6.60833 17.45 7.975C17.45 8.80833 17.271 9.521 16.913 10.113C16.5543 10.7043 15.9917 11.375 15.225 12.125C14.4083 12.9083 13.9127 13.504 13.738 13.912C13.5627 14.3207 13.475 15.0167 13.475 16H10.6ZM12 22C11.45 22 10.9793 21.8043 10.588 21.413C10.196 21.021 9.99999 20.55 9.99999 20C9.99999 19.45 10.196 18.979 10.588 18.587C10.9793 18.1957 11.45 18 12 18C12.55 18 13.021 18.1957 13.413 18.587C13.8043 18.979 14 19.45 14 20C14 20.55 13.8043 21.021 13.413 21.413C13.021 21.8043 12.55 22 12 22Z" fill="white" fill-opacity="0.84"/>
</g>
</svg>
