<svg width="33" height="32" viewBox="0 0 33 32" fill="none" xmlns="http://www.w3.org/2000/svg">
<g clip-path="url(#clip0_1217_17268)">
<path d="M19.052 19.4374C18.8382 19.4895 18.623 19.5358 18.4067 19.5761C17.2325 19.7971 16.0271 19.7925 14.8547 19.5627C14.6493 19.5227 14.3587 19.4521 13.984 19.3521L12.756 20.9481C9.72533 20.8507 8.57333 18.8201 8.57333 18.8201C8.57333 14.3121 10.548 10.6574 10.548 10.6574C12.5227 9.14673 14.4013 9.18806 14.4013 9.18806L14.9387 9.88806C14.9882 9.88112 15.038 9.87667 15.088 9.87473C16.1123 9.73896 17.1503 9.74344 18.1733 9.88806L18.7627 9.18806C18.7627 9.18806 20.6427 9.14673 22.616 10.6587C22.616 10.6587 24.592 14.3121 24.592 18.8201C24.592 18.8201 23.4253 20.8494 20.3947 20.9481L19.052 19.4374ZM13.9347 14.6641C13.1333 14.6641 12.5 15.2641 12.5 15.9974C12.5 16.7307 13.1467 17.3307 13.9347 17.3307C14.7347 17.3307 15.368 16.7307 15.368 15.9974C15.3813 15.2641 14.736 14.6641 13.9347 14.6641ZM19.0653 14.6641C18.2653 14.6641 17.632 15.2641 17.632 15.9974C17.632 16.7307 18.2787 17.3307 19.0653 17.3307C19.8667 17.3307 20.5 16.7307 20.5 15.9974C20.5 15.2641 19.8667 14.6641 19.0653 14.6641ZM28.5 30.6641L21.8467 23.9974H25.8333V5.33073H7.16667V23.9974H21.8373L22.5973 26.6641H7.16667C6.45942 26.6641 5.78115 26.3831 5.28105 25.883C4.78095 25.3829 4.5 24.7046 4.5 23.9974V5.33073C4.5 4.62349 4.78095 3.94521 5.28105 3.44511C5.78115 2.94501 6.45942 2.66406 7.16667 2.66406H25.8333C26.5406 2.66406 27.2189 2.94501 27.719 3.44511C28.219 3.94521 28.5 4.62349 28.5 5.33073V30.6641Z" fill="white" fill-opacity="0.84"/>
</g>
<defs>
<clipPath id="clip0_1217_17268">
<rect width="32" height="32" fill="white" transform="translate(0.5)"/>
</clipPath>
</defs>
</svg>
