<svg width="52" height="52" viewBox="0 0 52 52" fill="none" xmlns="http://www.w3.org/2000/svg">
    <path fill-rule="evenodd" clip-rule="evenodd" d="M15.7373 25.0961C15.7373 30.4713 19.5313 35.0991 24.802 36.1533C25.6001 36.3129 26.4219 36.3129 27.22 36.1532H27.2202C32.4909 35.0989 36.2846 30.4711 36.2848 25.0961V21.4332C36.2848 18.281 33.7293 15.7256 30.5771 15.7256H21.4449C18.2927 15.7256 15.7373 18.281 15.7373 21.4332V25.0961ZM23.2243 24.8575C23.2243 24.5053 22.9387 24.2197 22.5865 24.2197C22.2343 24.2197 21.9487 24.5053 21.9487 24.8575V28.282C21.9487 28.6343 22.2343 28.9198 22.5865 28.9198C22.9387 28.9198 23.2243 28.6343 23.2243 28.282V24.8575ZM26.0112 24.125C26.3634 24.125 26.6489 24.4105 26.6489 24.7628V28.2825C26.6489 28.6347 26.3634 28.9202 26.0112 28.9202C25.659 28.9202 25.3734 28.6347 25.3734 28.2825V24.7628C25.3734 24.4105 25.659 24.125 26.0112 24.125ZM26.0114 20.7949L26.009 20.7949C25.2641 20.7977 24.5345 21.0069 23.9012 21.3991C23.6017 21.5846 23.5093 21.9777 23.6948 22.2771C23.8803 22.5766 24.2733 22.669 24.5728 22.4835C25.0054 22.2156 25.5038 22.0726 26.0126 22.0705C27.5511 22.0711 28.7982 23.3185 28.7982 24.8573V28.2818C28.7982 28.6341 29.0837 28.9196 29.4359 28.9196C29.7881 28.9196 30.0737 28.6341 30.0737 28.2818V24.8573C30.0737 22.6137 28.255 20.7949 26.0114 20.7949Z" fill="white"/>
</svg>
