<svg width="20" height="20" viewBox="0 0 20 20" fill="none" xmlns="http://www.w3.org/2000/svg">
<title>Solana</title>
<g id="solana-sol-logo 1" clip-path="url(#clip0_10998_12776)">
<g id="Group 604">
<path id="Vector" d="M3.24653 13.8288C3.36722 13.7081 3.53316 13.6377 3.70916 13.6377H19.6698C19.9615 13.6377 20.1073 13.9897 19.9011 14.1959L16.7482 17.3488C16.6275 17.4695 16.4616 17.5399 16.2856 17.5399H0.32494C0.0332839 17.5399 -0.112544 17.1879 0.0936266 16.9817L3.24653 13.8288Z" fill="#8F8F8F"/>
<path id="Vector_2" d="M3.24653 2.05925C3.37225 1.93856 3.53819 1.86816 3.70916 1.86816H19.6698C19.9615 1.86816 20.1073 2.22016 19.9011 2.42633L16.7482 5.57924C16.6275 5.69993 16.4616 5.77033 16.2856 5.77033H0.32494C0.0332839 5.77033 -0.112544 5.41833 0.0936266 5.21216L3.24653 2.05925Z" fill="#8F8F8F"/>
<path id="Vector_3" d="M16.7482 7.90788C16.6275 7.7872 16.4616 7.7168 16.2856 7.7168H0.32494C0.0332839 7.7168 -0.112544 8.0688 0.0936266 8.27497L3.24653 11.4279C3.36722 11.5486 3.53316 11.619 3.70916 11.619H19.6698C19.9615 11.619 20.1073 11.267 19.9011 11.0608L16.7482 7.90788Z" fill="#8F8F8F"/>
</g>
</g>
<defs>
<clipPath id="clip0_10998_12776">
<rect width="19.9986" height="19.9986" fill="white" transform="translate(-0.00292969)"/>
</clipPath>
</defs>
</svg>
