<svg width="52" height="52" viewBox="0 0 52 52" fill="none" xmlns="http://www.w3.org/2000/svg">
<g mask="url(#mask0_10998_12740)">
<path d="M26 26.4531C24.9 26.4531 23.9583 26.0615 23.175 25.2781C22.3917 24.4948 22 23.5531 22 22.4531C22 21.3531 22.3917 20.4115 23.175 19.6281C23.9583 18.8448 24.9 18.4531 26 18.4531C27.1 18.4531 28.0417 18.8448 28.825 19.6281C29.6083 20.4115 30 21.3531 30 22.4531C30 23.5531 29.6083 24.4948 28.825 25.2781C28.0417 26.0615 27.1 26.4531 26 26.4531ZM18 34.4531V31.6531C18 31.0865 18.1458 30.5656 18.4375 30.0906C18.7292 29.6156 19.1167 29.2531 19.6 29.0031C20.6333 28.4865 21.6833 28.099 22.75 27.8406C23.8167 27.5823 24.9 27.4531 26 27.4531C27.1 27.4531 28.1833 27.5823 29.25 27.8406C30.3167 28.099 31.3667 28.4865 32.4 29.0031C32.8833 29.2531 33.2708 29.6156 33.5625 30.0906C33.8542 30.5656 34 31.0865 34 31.6531V34.4531H18ZM20 32.4531H32V31.6531C32 31.4698 31.9542 31.3031 31.8625 31.1531C31.7708 31.0031 31.65 30.8865 31.5 30.8031C30.6 30.3531 29.6917 30.0156 28.775 29.7906C27.8583 29.5656 26.9333 29.4531 26 29.4531C25.0667 29.4531 24.1417 29.5656 23.225 29.7906C22.3083 30.0156 21.4 30.3531 20.5 30.8031C20.35 30.8865 20.2292 31.0031 20.1375 31.1531C20.0458 31.3031 20 31.4698 20 31.6531V32.4531ZM26 24.4531C26.55 24.4531 27.0208 24.2573 27.4125 23.8656C27.8042 23.474 28 23.0031 28 22.4531C28 21.9031 27.8042 21.4323 27.4125 21.0406C27.0208 20.649 26.55 20.4531 26 20.4531C25.45 20.4531 24.9792 20.649 24.5875 21.0406C24.1958 21.4323 24 21.9031 24 22.4531C24 23.0031 24.1958 23.474 24.5875 23.8656C24.9792 24.2573 25.45 24.4531 26 24.4531Z" fill="currentColor"/>
</g>
</svg>
