<svg width="24" height="24" viewBox="0 0 24 24" fill="none" xmlns="http://www.w3.org/2000/svg">
<path d="M14.8756 7.5H16.4089L13.059 11.3124L17 16.5H13.9141L11.4973 13.3536L8.73182 16.5H7.19744L10.7805 12.4223L7 7.5H10.164L12.3487 10.3758L14.8756 7.5ZM14.3374 15.5861H15.1871L9.7024 8.36591H8.79068L14.3374 15.5861Z" fill="currentColor"/>
<path d="M22 12C22 17.5228 17.5228 22 12 22C6.47715 22 2 17.5228 2 12C2 6.47715 6.47715 2 12 2C17.5228 2 22 6.47715 22 12ZM4 12C4 16.4183 7.58172 20 12 20C16.4183 20 20 16.4183 20 12C20 7.58172 16.4183 4 12 4C7.58172 4 4 7.58172 4 12Z" fill="currentColor"/>
</svg>
